<?xml version="1.0" encoding="UTF-8"?>
<svg id="Layer_1" xmlns="http://www.w3.org/2000/svg" version="1.1" width="400" height="400" viewBox="0 0 400 400">
  <!-- Generator: Adobe Illustrator 29.4.0, SVG Export Plug-In . SVG Version: 2.1.0 Build 152)  -->
  <defs>
    <style>
      .st0 {
        fill: #010101;
      }
    </style>
  </defs>
  <g>
    <path class="st0" d="M194.3,26.3c-6.7,8.7-16.2,22.9-22.2,42.2-9.9,31.9-4.4,58.8-1.3,70.3,6.7,24.8,19.4,42.2,27.6,51.7.4-13.8,3.3-39.6,20-66.1,8.3-13.1,17.6-22.8,25.5-29.7-5.6-10.6-12.6-22.2-21.3-34.5-9.5-13.3-19.2-24.5-28.3-33.9h0Z"/>
    <path class="st0" d="M199.4,193.2l-1.8-2.1c-13.1-15.2-22.7-33.2-27.8-52.1-4.4-16.4-7.7-41.9,1.3-70.9,4.7-15.2,12.2-29.5,22.3-42.6l.7-1,.9.9c10.3,10.7,19.8,22.1,28.4,34,7.9,11,15.1,22.7,21.4,34.6l.4.7-.6.6c-9.9,8.7-18.4,18.6-25.3,29.5-12.3,19.5-19.1,42.2-19.9,65.6v2.7c0,0,0,0,0,0ZM194.4,27.9c-9.6,12.6-16.7,26.3-21.2,40.9-8.9,28.5-5.6,53.7-1.3,69.7,4.7,17.7,13.6,34.7,25.6,49.2,1.2-22.8,8.1-44.9,20.1-63.9,6.8-10.8,15.2-20.7,25.1-29.4-6.1-11.6-13.2-22.9-20.9-33.6-8.3-11.5-17.4-22.5-27.3-32.9h0Z"/>
  </g>
  <g>
    <path class="st0" d="M206.5,189.4c.9-7.8,8.3-67.5,58.6-95.9,18.9-10.7,37.4-13.3,49.8-13.8,1.3,8.1,3.2,26-4.3,46.3-6.1,16.7-15.8,27.6-21.4,33.1-3.2-.2-6.5-.3-9.9-.2-32.4.9-57.7,17.7-72.8,30.5h0Z"/>
    <path class="st0" d="M205.1,192l.3-2.7c1.2-11.3,9.8-68.9,59.2-96.7,15.1-8.5,32-13.2,50.3-13.9h.9s.1.9.1.9c1.8,11,2.6,28.1-4.3,46.9-4.6,12.6-12.1,24.2-21.7,33.5l-.3.3h-.5c-3.3-.3-6.5-.4-9.8-.3-24.7.7-49.6,11.2-72.1,30.2l-2,1.7h0ZM314,80.8c-17.6.8-33.8,5.4-48.4,13.6-45.3,25.6-55.6,76.9-57.8,92.5,22.3-18.3,46.9-28.3,71.4-29,3.2,0,6.4,0,9.5.2,9.2-9,16.4-20.2,20.9-32.4,6.5-17.8,6.1-34.1,4.4-44.9h0Z"/>
  </g>
  <g>
    <path class="st0" d="M190.5,202.2c-2.3,2.1-5,4.3-8.1,6.5-3.7,2.7-7.3,4.8-10.6,6.6h0c-35.4,20.6-75.6,12.5-83.5,10.9-13-2.6-22.9-6.7-28.1-8.8-11.2-4.6-20.1-9.7-26.6-14,9.7-8.9,18.5-15.5,24.9-20,5.6-3.9,13.4-9.3,23-13.6,6.6-3,16.7-6.6,30-8.1,6.9,6.7,16,14.3,27.7,21.3,19.7,11.8,38.3,16.8,51.2,19.2h0Z"/>
    <path class="st0" d="M116.9,230.2c-9.3,0-18.9-1-28.7-2.9-13.4-2.7-23.5-6.9-28.3-8.9-9.3-3.9-18.4-8.6-26.8-14.1l-1.2-.7,1-.9c8-7.2,16.4-14,25-20,6.3-4.4,13.8-9.5,23.2-13.7,9.4-4.2,19.6-7,30.3-8.2h.5c0,0,.4.3.4.3,8.3,8.1,17.6,15.2,27.5,21.2,15.6,9.3,32.7,15.8,50.8,19.1l2.2.4-1.6,1.4c-2.6,2.3-5.3,4.5-8.1,6.5-3.4,2.5-7,4.7-10.7,6.7-15.8,9.2-34.9,13.9-55.5,13.9h0ZM35.4,203.2c8,5.1,16.5,9.5,25.3,13.2,4.8,2,14.7,6.1,27.9,8.7,30.7,6.2,60.1,2.4,82.7-10.8,3.6-2,7.2-4.2,10.5-6.5,2.2-1.6,4.3-3.2,6.3-5-17.6-3.5-34.2-9.8-49.4-18.9-9.9-5.9-19.2-13-27.5-21.1-10.3,1.3-20.1,3.9-29.1,8-9.3,4.1-16.7,9.1-22.9,13.5-8.2,5.7-16.2,12.1-23.8,18.9h0Z"/>
  </g>
  <g>
    <path class="st0" d="M83.6,82.4c1.9,11.1,6.3,29.7,18.3,49.2,3.1,5,15.2,23.9,38.2,39.9,2.3,1.6,9.9,6.7,20.7,11.8,11.4,5.4,21.8,8.5,29.7,10.4-6.6-6.1-14.6-15.2-21.3-27.7-14.1-26.5-13.2-52-12-63.4-14.3-9-35.4-18.8-61.5-20.1-4.2-.2-8.2-.2-12,0h0Z"/>
    <path class="st0" d="M194.2,195.7l-3.9-.9c-10.3-2.5-20.3-6-29.9-10.5-10.5-4.9-18.1-10-20.9-11.9-20.9-14.5-33.1-31.4-38.5-40.2-9.3-15.1-15.5-31.8-18.5-49.5l-.2-1.2h1.2c4.1-.3,8.1-.3,12.2,0,21.4,1.1,42.2,7.9,62,20.3l.6.3v.7c-1.6,15.5-.9,39,11.9,62.8,5.4,10.2,12.5,19.4,21.1,27.4l2.9,2.8h0ZM84.8,83.4c3,17.1,9,33.1,18,47.6,5.3,8.7,17.3,25.3,37.9,39.6,2.7,1.9,10.2,6.8,20.6,11.7,8.2,3.9,16.8,7,25.6,9.4-7.5-7.5-13.7-16-18.7-25.2-12.8-23.9-13.7-47.6-12.2-63.4-19.3-11.9-39.6-18.5-60.4-19.6-3.6-.2-7.2-.2-10.7,0h0Z"/>
  </g>
  <g>
    <path class="st0" d="M208.5,374.4c6.7-8.7,16.2-22.9,22.2-42.2,9.9-31.9,4.4-58.8,1.3-70.3-6.7-24.8-19.4-42.2-27.6-51.7-.4,13.8-3.3,39.6-20,66.1-8.3,13.1-17.6,22.8-25.5,29.7,5.6,10.6,12.6,22.2,21.3,34.5,9.5,13.3,19.2,24.5,28.3,33.9h0Z"/>
    <path class="st0" d="M208.5,376.1l-.9-.9c-10.3-10.7-19.8-22.1-28.4-34-7.9-11-15.1-22.7-21.4-34.6l-.4-.7.6-.6c9.9-8.7,18.4-18.6,25.3-29.5,12.3-19.5,19.1-42.2,19.9-65.6v-2.7c0,0,1.9,2.1,1.9,2.1,13.1,15.2,22.7,33.2,27.8,52.1,4.4,16.4,7.7,41.9-1.3,70.9-4.7,15.2-12.2,29.5-22.3,42.6l-.7,1h0ZM160.2,306.3c6.1,11.6,13.2,22.9,20.9,33.6,8.3,11.5,17.4,22.5,27.3,32.9,9.6-12.6,16.7-26.3,21.2-40.9,8.9-28.5,5.6-53.7,1.3-69.7-4.7-17.7-13.6-34.7-25.6-49.2-1.2,22.8-8.1,44.9-20.1,63.9-6.8,10.8-15.2,20.7-25.1,29.4h0Z"/>
  </g>
  <g>
    <path class="st0" d="M196.3,209.1c-.9,7.8-8.3,67.5-58.6,95.9-18.9,10.7-37.4,13.3-49.8,13.8-1.3-8.1-3.2-26,4.3-46.3,6.1-16.7,15.8-27.6,21.4-33.1,3.2.2,6.5.3,9.9.2,32.4-.9,57.7-17.7,72.8-30.5h0Z"/>
    <path class="st0" d="M87,320v-.9c-2-11-2.7-28.1,4.2-46.9,4.6-12.6,12.1-24.2,21.7-33.5l.3-.3h.5c3.2.3,6.5.3,9.8.3,24.7-.7,49.6-11.2,72.1-30.2l2-1.7-.3,2.7c-1.2,11.3-9.8,68.9-59.2,96.7-15.1,8.5-32,13.2-50.3,13.9h-.9s0,0,0,0ZM114,240.5c-9.2,9-16.4,20.2-20.9,32.4-6.5,17.8-6.1,34.1-4.4,44.9,17.6-.8,33.8-5.4,48.4-13.6,45.3-25.6,55.6-76.9,57.8-92.5-22.3,18.3-46.9,28.3-71.4,29-3.2,0-6.4,0-9.5-.2h0Z"/>
  </g>
  <g>
    <path class="st0" d="M212.2,196.3c2.3-2.1,5-4.3,8.1-6.5,3.7-2.7,7.3-4.8,10.6-6.6h0c35.4-20.6,75.6-12.5,83.5-10.9,13,2.6,22.9,6.7,28.1,8.8,11.2,4.6,20.1,9.7,26.6,14-9.7,8.9-18.5,15.5-24.9,20-5.6,3.9-13.4,9.3-23,13.6-6.6,3-16.7,6.6-30,8.1-6.9-6.7-16-14.3-27.7-21.3-19.7-11.8-38.3-16.8-51.2-19.2h0Z"/>
    <path class="st0" d="M290.7,238l-.4-.4c-8.3-8.1-17.6-15.2-27.5-21.2-15.6-9.3-32.7-15.8-50.8-19.1l-2.2-.4,1.6-1.4c2.6-2.3,5.3-4.5,8.1-6.5,3.4-2.5,7-4.7,10.7-6.7,23-13.4,52.9-17.3,84.2-11,13.4,2.7,23.5,6.9,28.3,8.9,9.3,3.9,18.4,8.6,26.8,14.1l1.2.7-1,.9c-8,7.2-16.4,14-25,20-6.3,4.4-13.8,9.5-23.2,13.7-9.4,4.2-19.6,7-30.3,8.2h-.5c0,0,0,0,0,0ZM214.6,195.7c17.6,3.5,34.2,9.8,49.4,18.9,9.9,5.9,19.2,13,27.5,21.1,10.3-1.3,20.1-3.9,29.1-8,9.3-4.1,16.7-9.1,22.9-13.5,8.2-5.7,16.2-12.1,23.8-18.9-8-5.1-16.5-9.5-25.3-13.2-4.8-2-14.7-6.1-27.9-8.7-30.8-6.2-60.1-2.4-82.7,10.8-3.6,2-7.2,4.2-10.5,6.5-2.2,1.6-4.3,3.2-6.3,5h0Z"/>
  </g>
  <g>
    <path class="st0" d="M318.3,317.1c-3.5-26.5-13.7-44.5-19.9-53.7-26.4-39.3-68.9-51.6-79.6-54.6-2.8-.8-5-1.4-6.5-1.7,6.5,6.1,14.5,15.1,21.1,27.4,14,26.2,13.1,51.4,11.9,62.8,14.2,8.8,35.1,18.6,61,19.9,4.2.2,8.1.2,12,0Z"/>
    <path class="st0" d="M312.3,318.3c-2,0-4,0-6-.1-21.2-1.1-41.9-7.8-61.5-20.1l-.6-.4v-.7c1.6-15.4.8-38.6-11.7-62.1-5.4-10.1-12.4-19.2-20.9-27.1l-2.9-2.8,3.9.9c2.2.5,4.4,1.1,6.6,1.7,44.2,12.7,68,36.9,80.2,55,10.5,15.7,17.5,34.4,20.1,54.2v1.2c.1,0-1,0-1,0-2,.1-4,.1-6,.1h0ZM246.4,296.6c19.1,11.8,39.3,18.3,59.9,19.4,3.5.2,7.1.2,10.7,0-2.7-19-9.4-37.1-19.6-52.1-12-17.8-35.4-41.6-79-54.2-.9-.3-1.7-.5-2.6-.7,7.4,7.4,13.6,15.8,18.5,24.9,12.7,23.7,13.6,47.1,12.1,62.7h0Z"/>
  </g>
</svg>