<?xml version="1.0" encoding="UTF-8"?>
<svg xmlns="http://www.w3.org/2000/svg" version="1.1" viewBox="0 0 2362 2362">
  <!-- Generator: Adobe Illustrator 28.6.0, SVG Export Plug-In . SVG Version: 1.2.0 Build 709)  -->
  <g>
    <g id="Layer_1">
      <path d="M1982.3,1115.7c-6.9-85.5-27.2-168.7-60.6-247.7-34.8-82.3-82.6-157.5-142-223.6-10-11.2-20.2-21.9-30.2-32s-20.8-20.2-32-30.2c-66.3-59.5-141.5-107.3-223.6-142-79.2-33.5-162.4-53.8-247.7-60.6V87.5h-130.6v292c-85.3,6.8-168.5,27.2-247.7,60.6-82.3,34.8-157.5,82.6-223.6,142-10.3,9.2-20.7,19.1-31.9,30.2h0c-10.1,10.1-20.2,20.9-30.2,32.1-59.5,66.3-107.3,141.5-142,223.6-33.4,79-53.7,162.2-60.6,247.7H87.5v130.6h292.1c6.9,85.5,27.2,168.7,60.6,247.7,34.8,82.3,82.6,157.5,142,223.6,9.2,10.3,19.1,20.7,30.2,31.9h0c10.1,10.1,20.8,20.3,32,30.3,66.3,59.5,141.5,107.3,223.6,142,79.2,33.5,162.4,53.8,247.7,60.6v292.2h130.6v-292.1c85.5-6.9,168.7-27.2,247.7-60.6,82.3-34.8,157.5-82.6,223.6-142,10.3-9.2,20.7-19.1,31.9-30.2h0c10.1-10.1,20.2-20.9,30.2-32.1,59.5-66.3,107.3-141.5,142-223.6,33.4-79,53.7-162.2,60.6-247.7h292.3v-130.6h-292.2ZM1442.8,976.1c37.5,47.6,61.1,104.6,68.2,164.9,1.6,12.9,2.3,26.4,2.3,40.1s-.8,26.4-2.4,40.2c-6.2,51.6-24.5,101-53.3,144.1l-211.5-211.5v-298.9c50.8,10.1,98.7,32.1,139.7,64.3,10.4,8.2,20.6,17.2,30.1,26.7,9.5,9.5,18.5,19.6,26.7,30.1ZM1246.2,1640.7c84.6-11.9,163.6-46.6,229.6-101.1,11.3-9.2,22.2-19.2,33.3-30.3,11.1-11.1,21-22,30.3-33.3,54.5-66,89.3-145,101.1-229.6h209.5c-6.4,67.5-23,133.4-49.6,196.2h0c-28.3,67-67.2,128.8-115.7,183.5-8.8,9.9-18.3,20.1-28.4,30.3-10,10-20.1,19.5-30.1,28.3h0c-54.4,48.3-116.1,87.2-183.5,115.8-62.7,26.6-128.7,43.2-196.3,49.7v-209.5ZM1475.9,822.5c-66-54.5-145-89.3-229.6-101.1v-209.5c67.7,6.5,133.6,23.1,196.3,49.7,67,28.3,128.8,67.2,183.5,115.7,9.9,8.8,20.1,18.3,30.2,28.4,10,10,19.5,20.1,28.3,30.1h0c48.2,54.5,87.1,116.2,115.7,183.6,26.5,62.5,43.1,128.4,49.7,196.3h-209.6c-11.9-84.6-46.6-163.6-101.1-229.7-9.3-11.3-19.2-22.2-30.3-33.3-11.1-11.1-22-21-33.3-30.3ZM1246.3,1507v-168.3l119.1,119.1c-36,24.1-76.5,40.8-119.1,49.3ZM851,1140.8c7.2-60.1,30.8-117.1,68.2-164.8,8.3-10.6,17.3-20.6,26.6-29.9h0c9.5-9.6,19.6-18.6,30.1-26.8,40.9-32.2,88.8-54.1,139.7-64.2v298.9c0,0-211.5,211.4-211.5,211.4-28.9-43.2-47.2-92.6-53.3-144.3-1.6-12.9-2.3-26.4-2.3-40.1s.8-26.4,2.3-40.2ZM1115.8,721.3c-84.7,11.9-163.7,46.7-229.7,101.2-11.3,9.2-22.2,19.1-33.3,30.3-11.1,11.1-21,22-30.3,33.3-54.5,66-89.3,145-101.1,229.6h-209.5c6.5-67.7,23.1-133.6,49.7-196.3,28.3-67,67.2-128.8,115.7-183.5,8.8-9.9,18.4-20.1,28.4-30.3,10-10,20.1-19.5,30.1-28.3h0c54.4-48.3,116.1-87.2,183.5-115.8,62.7-26.6,128.7-43.2,196.3-49.7v209.5ZM886,1539.3c66,54.6,145.1,89.3,229.6,101.2v209.6c-67.8-6.5-133.7-23.2-196.3-49.7-67-28.3-128.8-67.2-183.5-115.7-9.9-8.8-20.1-18.3-30.2-28.4-10-10-19.5-20.1-28.3-30.1h0c-48.2-54.5-87.1-116.2-115.7-183.6-26.6-62.7-43.2-128.7-49.7-196.3h209.5c11.9,84.6,46.6,163.6,101.1,229.6,9.3,11.3,19.2,22.2,30.3,33.3,10.5,10.5,21.7,20.7,33.3,30.2ZM996.7,1457.7l119-119v168.3c-42.5-8.4-82.9-25.2-119-49.3Z"/>
    </g>
  </g>
</svg>